HIERARCHY
ROOT Hips
{
	OFFSET 0.000000 0.000000 0.000000 
	CHANNELS 6 Xposition Yposition Zposition Zrotation Yrotation Xrotation
	JOINT LeftUpLeg
	{
		OFFSET 1.363060 -1.794630 0.839290 
		CHANNELS 3 Zrotation Yrotation Xrotation
		JOINT LeftLeg
		{
			OFFSET 2.448110 -6.726130 0.000000 
			CHANNELS 3 Zrotation Yrotation Xrotation
			JOINT LeftFoot
			{
				OFFSET 2.562200 -7.039590 0.000000 
				CHANNELS 3 Zrotation Yrotation Xrotation
				JOINT LeftToeBase
				{
					OFFSET 0.157640 -0.433110 2.322550 
					CHANNELS 3 Zrotation Yrotation Xrotation
					End Site
					{
						OFFSET 0.000000 0.000000 0.000000 
					}
				}
			}
		}
	}
	JOINT RightUpLeg
	{
		OFFSET -1.305520 -1.794630 0.839290 
		CHANNELS 3 Zrotation Yrotation Xrotation
		JOINT RightLeg
		{
			OFFSET -2.542530 -6.985550 0.000000 
			CHANNELS 3 Zrotation Yrotation Xrotation
			JOINT RightFoot
			{
				OFFSET -2.568260 -7.056230 0.000000 
				CHANNELS 3 Zrotation Yrotation Xrotation
				JOINT RightToeBase
				{
					OFFSET -0.164730 -0.452590 2.363150 
					CHANNELS 3 Zrotation Yrotation Xrotation
					End Site
					{
						OFFSET 0.000000 0.000000 0.000000 
					}
				}
			}
		}
	}
	JOINT Spine
	{
		OFFSET 0.028270 2.035590 -0.193380 
		CHANNELS 3 Zrotation Yrotation Xrotation
		JOINT Spine1
		{
			OFFSET 0.056720 2.048850 -0.042750 
			CHANNELS 3 Zrotation Yrotation Xrotation
			JOINT Neck1
			{
				OFFSET -0.054170 1.746240 0.172020 
				CHANNELS 3 Zrotation Yrotation Xrotation
				JOINT Head
				{
					OFFSET 0.104070 1.761360 -0.123970 
					CHANNELS 3 Zrotation Yrotation Xrotation
					End Site
					{
						OFFSET 0.000000 0.000000 0.000000 
					}
				}
			}
			JOINT LeftArm
			{
				OFFSET 3.362410 1.200890 -0.311210 
				CHANNELS 3 Zrotation Yrotation Xrotation
				JOINT LeftForeArm
				{
					OFFSET 4.983000 -0.000000 -0.000000 
					CHANNELS 3 Zrotation Yrotation Xrotation
					JOINT LeftHand
					{
						OFFSET 3.483560 -0.000000 -0.000000 
						CHANNELS 3 Zrotation Yrotation Xrotation
						JOINT LeftHandIndex1
						{
							OFFSET 0.715260 -0.000000 -0.000000 
							CHANNELS 3 Zrotation Yrotation Xrotation
							End Site
							{
								OFFSET 0.000000 0.000000 0.000000 
							}
						}
					}
				}
			}
			JOINT RightArm
			{
				OFFSET -3.136600 1.374050 -0.404650 
				CHANNELS 3 Zrotation Yrotation Xrotation
				JOINT RightForeArm
				{
					OFFSET -5.241900 -0.000000 -0.000000 
					CHANNELS 3 Zrotation Yrotation Xrotation
					JOINT RightHand
					{
						OFFSET -3.444170 -0.000000 -0.000000 
						CHANNELS 3 Zrotation Yrotation Xrotation
						JOINT RightHandIndex1
						{
							OFFSET -0.622530 -0.000000 -0.000000 
							CHANNELS 3 Zrotation Yrotation Xrotation
							End Site
							{
								OFFSET 0.000000 0.000000 0.000000 
							}
						}
					}
				}
			}
		}
	}
}
MOTION
Frames: 12
Frame Time: 0.041667
10.804953 18.001025 4.499928 177.850255 1.134235 -159.980656 -14.834230 -21.612463 -66.865375 16.580246 25.567827 82.639529 1.105710 -4.488569 -22.545396 2.096100 -9.063300 -25.993700 33.779892 16.237738 -16.337375 0.984053 -4.966054 11.997113 -0.758008 0.703335 -17.129561 -1.663100 8.125900 -23.097100 1.605339 -0.341063 -3.900412 -0.146458 -0.935027 14.002198 7.726666 -4.972094 29.364938 0.783500 -0.472300 7.310400 -104.537651 -1.867655 17.085057 10.549440 -11.398135 -1.366499 -1.184299 1.137863 11.108752 -7.125000 0.000000 0.000000 96.445257 0.501198 15.904340 -21.697925 33.809118 -8.355683 0.145413 3.576632 -9.911396 7.125000 0.000000 0.000000 
10.804953 18.004640 4.439889 177.856119 1.234345 -160.041333 -14.488970 -21.686714 -67.492845 16.284165 25.571156 81.853010 1.118708 -4.226234 -22.442118 2.374900 -9.606700 -27.712300 33.853967 16.303150 -16.005444 0.978772 -4.945676 12.027559 -0.777272 0.760795 -17.288547 -1.672900 8.148600 -23.166400 1.616796 -0.280871 -3.873299 -0.111682 -0.899441 14.011230 7.728061 -4.948303 29.197442 0.811400 -0.491500 7.209000 -104.697940 -1.766886 15.860700 10.461005 -11.260293 -1.325436 -1.162901 1.091589 11.803761 -7.125000 0.000000 0.000000 96.254002 0.615874 16.293859 -21.929774 34.039464 -8.499454 0.176510 3.568982 -9.874099 7.125000 0.000000 0.000000 
10.806049 18.005626 4.383028 177.704072 1.307508 -160.019237 -14.291413 -21.841841 -68.055877 15.918227 25.556543 80.886498 1.107305 -4.066875 -22.267324 2.537300 -9.905400 -28.670900 33.727057 16.214585 -15.820463 0.971153 -4.919199 12.030198 -0.787575 0.823486 -17.355702 -1.706900 8.226900 -23.405500 1.580645 -0.209382 -3.861944 -0.114119 -0.872808 14.014951 7.672241 -4.977692 29.176511 0.764400 -0.501100 7.185100 -104.645346 -1.608665 15.017462 10.334603 -11.083060 -1.283668 -1.197953 1.201167 12.107905 -7.125000 0.000000 0.000000 96.219891 0.641253 16.696125 -22.212355 34.332038 -8.677412 0.225765 3.553082 -9.779866 7.125000 0.000000 0.000000 
10.808678 18.006941 4.326386 177.569887 1.270126 -159.981291 -14.081629 -22.028306 -68.520909 15.498742 25.522217 79.777329 1.088490 -3.944879 -22.078958 2.508100 -9.852700 -28.500900 33.608891 16.279990 -15.591821 0.977325 -4.880951 11.988055 -0.808220 0.680220 -17.547365 -1.674200 8.151600 -23.175600 1.518600 -0.107892 -3.877175 -0.211559 -0.805901 13.794633 8.423765 -5.637435 29.050896 0.794200 -1.948100 7.191700 -104.481693 -1.316908 14.402823 10.192397 -10.879938 -1.242568 -1.270749 1.393791 12.314087 -7.125000 0.000000 0.000000 96.293921 0.514115 16.997961 -22.495486 34.616741 -8.856113 0.176618 3.638152 -9.788741 7.125000 0.000000 0.000000 
10.811527 18.010995 4.266895 177.491605 1.209165 -160.001054 -13.854205 -22.145622 -68.891268 15.097525 25.470805 78.714115 1.019257 -4.021557 -21.702246 2.347800 -9.555800 -27.550000 33.588129 16.498678 -15.262586 0.991263 -4.868704 12.019331 -0.838892 0.258779 -17.863095 -1.675700 8.155200 -23.186400 1.473774 -0.017704 -3.874902 -0.260170 -0.755008 13.717805 8.712822 -5.740634 29.152789 0.926200 -1.997100 7.245200 -104.399509 -1.049011 13.959326 10.136183 -10.815931 -1.225282 -1.316458 1.472315 12.443731 -7.125000 0.000000 0.000000 96.319916 0.533835 17.141604 -22.590816 34.715439 -8.918579 0.185861 3.645851 -9.808731 7.125000 0.000000 0.000000 
10.814485 18.011214 4.201159 177.459094 1.251401 -160.058763 -13.598951 -22.186206 -69.241601 14.757799 25.421377 77.810639 0.958488 -4.110359 -21.386650 2.196500 -9.264000 -26.624600 33.650458 16.550314 -14.954133 0.991286 -4.874816 12.116329 -0.864592 0.057130 -18.105453 -1.666300 8.133400 -23.120100 1.466791 0.031629 -3.843508 -0.236510 -0.741033 13.827117 8.773621 -5.816098 29.633970 1.016100 -2.048800 7.501100 -104.471442 -0.964421 13.103666 10.048531 -10.683933 -1.192683 -1.300131 1.471808 12.944470 -7.125000 0.000000 0.000000 96.213357 0.687778 17.366484 -22.603726 34.728375 -8.930307 0.252291 3.621067 -9.808773 7.125000 0.000000 0.000000 
10.816895 18.007379 4.136629 177.426537 1.337567 -160.096253 -13.357196 -22.238604 -69.581329 14.423920 25.373077 76.920478 0.954066 -4.097366 -21.396916 2.314800 -9.493200 -27.350500 33.679492 16.510137 -14.725623 0.979718 -4.886661 12.221403 -0.891769 0.171086 -18.329055 -1.629900 8.048500 -22.861500 1.471421 0.093387 -3.810323 -0.205103 -0.710302 13.899385 8.585465 -5.561091 28.964707 0.906300 -1.926600 7.102800 -104.564083 -1.049154 11.844119 9.863794 -10.396751 -1.130866 -1.227838 1.468071 13.836170 -7.125000 0.000000 0.000000 96.059920 0.870259 17.694449 -22.637774 34.755428 -8.955340 0.247256 3.683260 -9.861908 7.125000 0.000000 0.000000 
10.817881 18.005517 4.076700 177.342389 1.398687 -160.107655 -13.234377 -22.282250 -69.834057 14.058030 25.309184 75.944432 0.962837 -4.077252 -21.506000 2.663500 -10.129200 -29.396200 33.616817 16.430976 -14.570674 0.964249 -4.919130 12.374241 -0.924021 0.292736 -18.599115 -1.667400 8.135800 -23.127400 1.451033 0.163672 -3.797914 -0.170095 -0.684578 13.934095 8.621513 -5.749514 29.354223 0.943400 -2.028200 7.289800 -104.569993 -0.817898 11.163155 9.789621 -10.299716 -1.106561 -1.192896 1.442507 14.245115 -7.125000 0.000000 0.000000 95.976285 1.000580 17.972093 -22.673297 34.791831 -8.979535 0.251900 3.704966 -9.822162 7.125000 0.000000 0.000000 
10.816128 18.004969 4.013046 177.262660 1.440717 -160.158189 -13.153561 -22.343103 -69.908451 13.658783 25.219664 74.875621 0.929911 -4.142577 -21.385146 2.731200 -10.246600 -29.779200 33.585211 16.249047 -14.337382 0.950253 -4.919142 12.470323 -0.949654 0.380886 -18.785413 -1.717800 8.251800 -23.481600 1.420334 0.238874 -3.768260 -0.179203 -0.656117 14.055942 8.636311 -5.909280 29.633491 0.942900 -2.100600 7.436800 -104.538314 -0.518487 10.861972 9.794811 -10.334542 -1.107420 -1.206703 1.438044 14.277760 -7.125000 0.000000 0.000000 95.928642 0.997376 18.227121 -22.749693 34.873377 -9.023228 0.228377 3.695549 -9.697693 7.125000 0.000000 0.000000 
10.811746 18.003545 3.946325 177.179848 1.519355 -160.218906 -13.077441 -22.435337 -69.903396 13.250147 25.115986 73.776505 0.881749 -4.267024 -21.209399 2.542500 -9.914800 -28.701300 33.558897 16.061125 -14.033534 0.939687 -4.884293 12.491092 -0.973309 0.480830 -18.935295 -1.771400 8.372900 -23.852400 1.402271 0.290507 -3.721885 -0.187945 -0.641960 14.222795 8.469630 -5.655416 29.394109 0.884200 -1.975000 7.314200 -104.536702 -0.631768 10.211528 9.721047 -10.222741 -1.082326 -1.190301 1.457331 14.527962 -7.125000 0.000000 0.000000 95.860200 1.135684 18.378171 -22.693102 34.803271 -8.976193 0.224497 3.633776 -9.570533 7.125000 0.000000 0.000000 
10.813061 18.001025 3.883985 177.103846 1.630179 -160.222896 -12.995960 -22.442437 -69.972107 12.876027 25.013127 72.765019 0.828601 -4.474591 -21.080089 2.360300 -9.579400 -27.625000 33.534473 16.088530 -13.773574 0.941637 -4.867266 12.518452 -0.998764 0.324373 -19.156819 -1.895800 8.645500 -24.692700 1.376398 0.386435 -3.703934 -0.148776 -0.607351 14.232686 8.392597 -5.610170 29.404647 0.851900 -1.954500 7.298000 -104.507043 -0.688233 9.721161 9.680663 -10.167470 -1.068820 -1.161578 1.448743 14.755190 -7.125000 0.000000 0.000000 95.833592 1.337088 18.524895 -22.698517 34.790903 -8.971317 0.238016 3.588182 -9.415094 7.125000 0.000000 0.000000 
10.819853 17.996971 3.821317 177.036945 1.659571 -160.259217 -12.933102 -22.452143 -69.973955 12.533261 24.906983 71.832343 0.752757 -4.791895 -20.888683 2.344400 -9.549300 -27.529300 33.537119 16.231069 -13.384957 0.963281 -4.818478 12.474448 -1.033897 -0.200257 -19.522465 -2.013600 8.894300 -25.465300 1.340015 0.487949 -3.684868 -0.091209 -0.574586 14.253182 8.473064 -5.783989 29.681519 0.879000 -2.032600 7.449600 -104.388377 -0.595521 9.597863 9.678956 -10.183067 -1.069736 -1.154798 1.450819 14.762546 -7.125000 0.000000 0.000000 95.859874 1.465843 18.607270 -22.635087 34.732561 -8.932084 0.160323 3.695811 -9.164380 7.125000 0.000000 0.000000 
